<svg xmlns="http://www.w3.org/2000/svg" viewBox="0 0 64 64">
  <rect width="64" height="64" rx="14" fill="#14110d"/>
  <rect x="1" y="1" width="62" height="62" rx="13" fill="none" stroke="#cc7755" stroke-opacity="0.35" stroke-width="1.5"/>
  <!-- Real Fraunces 700-italic "/", geometrically centered in viewBox -->
  <g transform="translate(19.76 46.875) scale(0.85)" fill="#cc7755" stroke="#cc7755" stroke-width="5" stroke-linejoin="round" stroke-linecap="round">
    <path d="M16.07-16.97L16.07-16.97Q15.04-15.15 13.66-12.66Q12.29-10.16 10.78-7.36L10.78-7.36L7.73-1.76Q6.19 1.04 4.84 3.51Q3.50 5.99 2.49 7.78L2.49 7.78Q1.76 8.96 0.84 9.39Q-0.08 9.83-1.06 9.41L-1.06 9.41Q-2.07 9.04-2.20 8.23Q-2.32 7.42-1.57 6.24L-1.57 6.24Q-0.59 4.54 0.87 2.13Q2.32-0.28 4.02-3.02Q5.71-5.77 7.41-8.53Q9.10-11.28 10.60-13.75Q12.10-16.21 13.10-18.06L13.10-18.06Q14.17-19.91 15.53-22.46Q16.88-25.00 18.37-27.85Q19.85-30.69 21.31-33.50Q22.76-36.32 24.07-38.77Q25.37-41.22 26.32-42.92L26.32-42.92Q27.08-44.07 28-44.52Q28.92-44.97 29.93-44.58L29.93-44.58Q30.91-44.21 31.00-43.37Q31.08-42.53 30.35-41.38L30.35-41.38Q29.34-39.62 27.93-37.17Q26.52-34.72 24.91-31.96Q23.30-29.20 21.66-26.45Q20.02-23.69 18.56-21.24Q17.11-18.79 16.07-16.97Z"/>
  </g>
</svg>
